<svg xmlns="http://www.w3.org/2000/svg" width="96" height="96" viewBox="0 0 96 96">
  <defs>
    <filter id="wps-office_icon-a" width="131.6%" height="131.6%" x="-15.8%" y="-15.8%" filterUnits="objectBoundingBox">
      <feOffset dy="2" in="SourceAlpha" result="shadowOffsetOuter1"/>
      <feGaussianBlur in="shadowOffsetOuter1" result="shadowBlurOuter1" stdDeviation="2"/>
      <feColorMatrix in="shadowBlurOuter1" result="shadowMatrixOuter1" values="0 0 0 0 0   0 0 0 0 0   0 0 0 0 0  0 0 0 0.2 0"/>
      <feMerge>
        <feMergeNode in="shadowMatrixOuter1"/>
        <feMergeNode in="SourceGraphic"/>
      </feMerge>
    </filter>
    <linearGradient id="wps-office_icon-b" x1="50%" x2="50%" y1="0%" y2="100%">
      <stop offset="0%" stop-color="#FA5E41"/>
      <stop offset="100%" stop-color="#FC3358"/>
    </linearGradient>
  </defs>
  <g fill="none" filter="url(#wps-office_icon-a)" transform="translate(12 10)">
    <rect width="76" height="76" fill="url(#wps-office_icon-b)" rx="16"/>
    <path fill="#FFF" d="M47.416,61.33 C47.282,61.33 46.946,61.292 46.74,60.944 L40.718,50.764 L45.41,42.842 L47.414,47.004 L58.506,28 L48.674,27.996 L29.26,60.984 C29.054,61.332 28.718,61.352 28.584,61.352 C28.45,61.352 28.114,61.304 27.908,60.956 L6.554,24.852 C5.828,23.624 5.816,22.686 6.522,21.446 C7.23,20.206 8.504,20 9.93,20 L31.892,20 L35.306,25.504 L30.49,34.358 L26.526,28 L17.496,28 L28.586,47.002 L44.108,20 L66.07,20 C67.496,20 68.772,20.204 69.478,21.444 C70.184,22.684 70.174,23.888 69.446,25.116 L48.214,60.872 C48.008,61.22 47.552,61.33 47.416,61.33 Z"/>
  </g>
</svg>
