<?xml version="1.0" encoding="UTF-8"?>
<svg width="96px" height="96px" viewBox="0 0 96 96" version="1.1" xmlns="http://www.w3.org/2000/svg" xmlns:xlink="http://www.w3.org/1999/xlink">
    <title>WPS</title>
    <defs>
        <linearGradient x1="50%" y1="0%" x2="50%" y2="100%" id="linearGradient-1">
            <stop stop-color="#FA5E41" offset="0%"></stop>
            <stop stop-color="#FC3358" offset="100%"></stop>
        </linearGradient>
    </defs>
    <g id="启动器" stroke="none" stroke-width="1" fill="none" fill-rule="evenodd">
        <g id="启动器-应用角标" transform="translate(-1744, -880)">
            <g id="WPS" transform="translate(1744, 880)">
                <rect id="矩形" x="0" y="0" width="96" height="96"></rect>
                <g id="编组-4" transform="translate(9, 9)">
                    <g id="WPS-Office_icon" fill-rule="nonzero">
                        <rect id="矩形" fill="url(#linearGradient-1)" x="0" y="0" width="78" height="78" rx="16"></rect>
                        <path d="M48.4151267,59.33 C48.2811267,59.33 47.9451267,59.292 47.7391267,58.944 L41.7171267,48.764 L46.4091267,40.842 L48.4131267,45.004 L59.5051267,26 L49.6731267,25.996 L30.2591267,58.984 C30.0531267,59.332 29.7171267,59.352 29.5831267,59.352 C29.4491267,59.352 29.1131267,59.304 28.9071267,58.956 L7.55312674,22.852 C6.82712674,21.624 6.81512674,20.686 7.52112674,19.446 C8.22912674,18.206 9.50312674,18 10.9291267,18 L32.8911267,18 L36.3051267,23.504 L31.4891267,32.358 L27.5251267,26 L18.4951267,26 L29.5851267,45.002 L45.1071267,18 L67.0691267,18 C68.4951267,18 69.7711267,18.204 70.4771267,19.444 C71.1831267,20.684 71.1731267,21.888 70.4451267,23.116 L49.2131267,58.872 C49.0071267,59.22 48.5511267,59.33 48.4151267,59.33 Z" id="路径" fill="#FFFFFF"></path>
                    </g>
                    <path d="M61,46 L78,46 L78,46 L78,62 C78,70.836556 70.836556,78 62,78 L46,78 L46,78 L46,61 C46,52.7157288 52.7157288,46 61,46 Z" id="矩形" fill="#FFE9F1"></path>
                    <path d="M78,46 L78,62 C78,70.836556 70.836556,78 62,78 L46,78 L46,61 C46,52.7157288 52.7157288,46 61,46 L78,46 Z M76.75,47.25 L61,47.25 C53.4060847,47.25 47.25,53.4060847 47.25,61 L47.25,76.75 L62,76.75 C70.0404053,76.75 76.5782126,70.3166135 76.7466696,62.3165929 L76.75,62 L76.75,47.25 Z" id="矩形" fill-opacity="0.1" fill="#000000" fill-rule="nonzero"></path>
                    <g id="编组-9" transform="translate(50, 49)" fill="#000000" fill-opacity="0.7" fill-rule="nonzero">
                        <g id="图标/单色图标/动作/Open" transform="translate(3.75, 3.75)">
                            <path d="M8.75,0 C9.44035594,-1.26816328e-16 10,0.559644063 10,1.25 L10,14.481 L15.3661165,9.11611652 C15.8167215,8.66551157 16.5257603,8.63084965 17.0161243,9.01213077 L17.1338835,9.11611652 C17.6220388,9.60427189 17.6220388,10.3957281 17.1338835,10.8838835 L9.63388348,18.3838835 C9.14572811,18.8720388 8.35427189,18.8720388 7.86611652,18.3838835 L0.366116524,10.8838835 C-0.122038841,10.3957281 -0.122038841,9.60427189 0.366116524,9.11611652 C0.854271888,8.62796116 1.64572811,8.62796116 2.13388348,9.11611652 L7.5,14.481 L7.5,1.25 C7.5,0.559644063 8.05964406,8.45442189e-17 8.75,0 Z" id="形状结合"></path>
                        </g>
                    </g>
                </g>
            </g>
        </g>
    </g>
</svg>